<?xml version="1.0" standalone="no"?>
<!DOCTYPE svg PUBLIC "-//W3C//DTD SVG 20010904//EN"
 "http://www.w3.org/TR/2001/REC-SVG-20010904/DTD/svg10.dtd">
<svg version="1.0" xmlns="http://www.w3.org/2000/svg"
 width="260.000000pt" height="260.000000pt" viewBox="0 0 260.000000 260.000000"
 preserveAspectRatio="xMidYMid meet">
<metadata>
Created by potrace 1.14, written by Peter Selinger 2001-2017
</metadata>
<g transform="translate(0.000000,260.000000) scale(0.100000,-0.100000)"
fill="#000000" stroke="none">
<path d="M1159 2595 c-2 -2 -29 -6 -59 -10 -30 -4 -58 -9 -61 -11 -3 -2 -20
-6 -38 -9 -52 -9 -180 -54 -258 -91 -388 -182 -667 -562 -731 -994 -9 -60 -9
-303 1 -360 4 -25 10 -63 13 -85 3 -22 10 -48 15 -57 5 -9 9 -26 9 -37 0 -12
4 -29 9 -39 5 -9 24 -54 42 -100 68 -176 202 -359 369 -503 44 -38 147 -109
158 -109 6 0 12 -4 14 -8 9 -23 262 -128 357 -148 251 -52 511 -39 725 37 231
82 421 215 579 404 101 120 179 263 230 421 20 60 39 125 42 144 3 19 9 55 13
80 8 54 8 308 0 365 -5 32 -28 137 -42 190 -12 44 -63 166 -97 231 -126 241
-317 428 -567 554 -131 66 -227 97 -387 127 -35 6 -331 14 -336 8z"/>
</g>
</svg>
